<svg xmlns="http://www.w3.org/2000/svg" xmlns:xlink="http://www.w3.org/1999/xlink" width="1080" zoomAndPan="magnify" viewBox="0 0 810 809.999993" height="1080" preserveAspectRatio="xMidYMid meet" version="1.0"><defs><clipPath id="381d657214"><path d="M 36.417969 32.601562 L 775.71875 32.601562 L 775.71875 771.902344 L 36.417969 771.902344 Z M 36.417969 32.601562 " clip-rule="nonzero"/></clipPath><clipPath id="8564693a57"><path d="M 177 439.230469 L 635 439.230469 L 635 458 L 177 458 Z M 177 439.230469 " clip-rule="nonzero"/></clipPath></defs><g clip-path="url(#381d657214)"><path fill="#ffffff" d="M 752.855469 500.808594 C 743.476562 532.722656 729.167969 562.996094 711.40625 590.875 C 696.75 613.566406 680.078125 634.890625 661.34375 654.289062 C 658.921875 656.941406 656.21875 659.3125 653.644531 661.808594 C 651.027344 664.269531 648.488281 666.800781 645.816406 669.203125 L 637.695312 676.261719 L 633.632812 679.800781 L 629.421875 683.144531 L 621.015625 689.863281 C 618.160156 692.042969 615.226562 694.101562 612.34375 696.230469 C 606.632812 700.601562 600.570312 704.441406 594.628906 708.476562 C 593.769531 709.058594 592.867188 709.660156 591.929688 710.289062 C 590.964844 710.871094 589.957031 711.476562 588.90625 712.105469 C 586.808594 713.359375 584.554688 714.710938 582.15625 716.144531 C 577.40625 719.125 571.792969 721.933594 565.726562 725.15625 C 564.203125 725.941406 562.675781 726.804688 561.0625 727.574219 C 559.441406 728.328125 557.789062 729.09375 556.105469 729.878906 C 552.730469 731.433594 549.242188 733.046875 545.640625 734.714844 C 538.253906 737.597656 530.550781 741.0625 522.15625 743.753906 C 488.992188 755.777344 447.601562 763.210938 406.066406 763.386719 C 364.539062 763.210938 323.148438 755.777344 289.992188 743.753906 C 281.585938 741.0625 273.890625 737.597656 266.5 734.714844 C 262.898438 733.046875 259.410156 731.433594 256.035156 729.878906 C 254.351562 729.09375 252.699219 728.328125 251.078125 727.578125 C 249.464844 726.804688 247.941406 725.941406 246.414062 725.15625 C 240.347656 721.9375 234.734375 719.125 229.992188 716.148438 C 227.585938 714.710938 225.332031 713.359375 223.234375 712.105469 C 222.1875 711.476562 221.179688 710.875 220.210938 710.289062 C 219.273438 709.660156 218.371094 709.058594 217.519531 708.484375 C 194.953125 693.699219 173.753906 676.898438 154.488281 658.035156 C 134.164062 637.734375 116.398438 614.992188 100.734375 590.882812 C 82.972656 562.996094 68.660156 532.722656 59.285156 500.808594 C 49.527344 469.011719 45.019531 435.628906 44.722656 402.25 C 45.019531 368.867188 49.527344 335.492188 59.285156 303.6875 C 68.660156 271.777344 82.972656 241.507812 100.726562 213.621094 C 115.390625 190.933594 132.0625 169.605469 150.796875 150.207031 C 153.21875 147.5625 155.921875 145.1875 158.496094 142.6875 C 161.113281 140.234375 163.652344 137.695312 166.320312 135.300781 L 174.441406 128.234375 L 178.5 124.699219 L 182.714844 121.355469 L 191.125 114.632812 C 193.972656 112.460938 196.914062 110.398438 199.800781 108.265625 C 205.503906 103.894531 211.570312 100.058594 217.515625 96.019531 C 218.371094 95.445312 219.265625 94.84375 220.207031 94.207031 C 221.179688 93.625 222.179688 93.019531 223.234375 92.390625 C 225.324219 91.140625 227.585938 89.789062 229.984375 88.355469 C 234.734375 85.371094 240.347656 82.5625 246.40625 79.34375 C 247.933594 78.554688 249.464844 77.699219 251.078125 76.925781 C 252.699219 76.171875 254.347656 75.40625 256.035156 74.625 C 259.402344 73.070312 262.898438 71.457031 266.5 69.789062 C 273.886719 66.898438 281.585938 63.433594 289.988281 60.742188 C 323.148438 48.71875 364.535156 41.285156 406.066406 41.109375 C 447.601562 41.285156 488.992188 48.71875 522.148438 60.742188 C 530.550781 63.433594 538.25 66.898438 545.640625 69.789062 C 549.242188 71.457031 552.730469 73.070312 556.097656 74.625 C 557.789062 75.40625 559.441406 76.171875 561.0625 76.925781 C 562.667969 77.695312 564.203125 78.554688 565.726562 79.34375 C 571.785156 82.5625 577.40625 85.371094 582.148438 88.355469 C 584.550781 89.789062 586.808594 91.140625 588.90625 92.390625 C 589.949219 93.019531 590.957031 93.625 591.929688 94.207031 C 592.867188 94.839844 593.765625 95.445312 594.621094 96.015625 C 617.183594 110.804688 638.382812 127.601562 657.652344 146.46875 C 677.976562 166.769531 695.738281 189.503906 711.40625 213.617188 C 729.167969 241.503906 743.476562 271.777344 752.855469 303.6875 C 762.613281 335.492188 767.121094 368.867188 767.414062 402.25 C 767.121094 435.628906 762.613281 469.011719 752.855469 500.808594 Z M 775.71875 402.007812 L 775.714844 401.972656 C 775.410156 367.886719 770.824219 333.785156 760.894531 301.269531 C 751.347656 268.648438 736.71875 237.6875 718.484375 209.246094 L 709.71875 196.078125 C 709.71875 196.078125 707.183594 192.527344 703.386719 187.214844 C 699.726562 181.792969 694.125 175.105469 688.777344 168.238281 C 683.015625 161.707031 677.492188 154.972656 672.84375 150.375 C 668.328125 145.664062 665.316406 142.523438 665.316406 142.523438 C 665.316406 142.523438 664.554688 141.742188 663.1875 140.425781 C 661.816406 139.105469 659.859375 137.210938 657.511719 134.945312 C 652.933594 130.277344 646.285156 124.664062 639.769531 118.898438 C 636.425781 116.117188 632.980469 113.449219 629.800781 110.894531 C 628.203125 109.621094 626.660156 108.398438 625.199219 107.234375 C 623.683594 106.140625 622.246094 105.101562 620.921875 104.152344 C 615.628906 100.324219 612.097656 97.785156 612.097656 97.785156 C 612.097656 97.785156 611.328125 97.15625 610.085938 96.351562 C 608.851562 95.53125 607.214844 94.4375 605.574219 93.335938 C 602.292969 91.132812 599.007812 88.9375 599.007812 88.9375 C 598.128906 88.34375 597.214844 87.726562 596.253906 87.078125 C 595.261719 86.480469 594.238281 85.855469 593.164062 85.207031 C 591.023438 83.914062 588.714844 82.535156 586.261719 81.0625 C 581.410156 78.003906 575.667969 75.113281 569.46875 71.808594 C 567.90625 71.007812 566.339844 70.121094 564.691406 69.335938 C 563.035156 68.558594 561.339844 67.769531 559.625 66.96875 C 556.175781 65.375 552.605469 63.714844 548.917969 62.007812 C 541.359375 59.035156 533.480469 55.5 524.882812 52.726562 C 490.941406 40.402344 448.5625 32.761719 406.066406 32.601562 C 363.570312 32.761719 321.199219 40.402344 287.253906 52.734375 C 278.664062 55.5 270.773438 59.042969 263.21875 62.011719 C 259.53125 63.714844 255.960938 65.375 252.511719 66.96875 C 250.792969 67.773438 249.097656 68.558594 247.445312 69.335938 C 245.796875 70.121094 244.230469 71.007812 242.667969 71.808594 C 236.46875 75.113281 230.726562 78.003906 225.875 81.0625 C 223.421875 82.535156 221.121094 83.921875 218.96875 85.207031 C 217.902344 85.855469 216.875 86.480469 215.886719 87.078125 C 214.925781 87.726562 214.007812 88.34375 213.132812 88.9375 C 213.132812 88.9375 209.847656 91.132812 206.5625 93.335938 C 204.917969 94.4375 203.28125 95.53125 202.054688 96.359375 C 200.808594 97.15625 200.039062 97.785156 200.039062 97.785156 C 200.039062 97.785156 196.507812 100.324219 191.21875 104.152344 C 189.890625 105.101562 188.457031 106.140625 186.941406 107.234375 C 185.480469 108.398438 183.9375 109.621094 182.339844 110.894531 C 179.160156 113.449219 175.71875 116.117188 172.367188 118.898438 C 165.847656 124.664062 159.203125 130.277344 154.625 134.945312 C 152.277344 137.210938 150.324219 139.105469 148.957031 140.425781 C 147.582031 141.742188 146.824219 142.523438 146.824219 142.523438 C 146.824219 142.523438 143.8125 145.664062 139.296875 150.375 C 134.648438 154.972656 129.121094 161.707031 123.359375 168.238281 C 118.011719 175.105469 112.414062 181.792969 108.753906 187.214844 C 104.953125 192.535156 102.417969 196.078125 102.417969 196.078125 L 93.65625 209.246094 C 75.421875 237.6875 60.796875 268.652344 51.246094 301.269531 C 41.316406 333.785156 36.730469 367.894531 36.429688 401.976562 L 36.421875 402.007812 L 36.417969 402.25 L 36.421875 402.496094 L 36.429688 402.527344 C 36.730469 436.609375 41.316406 470.710938 51.246094 503.234375 C 60.796875 535.847656 75.421875 566.8125 93.65625 595.25 L 102.421875 608.421875 C 102.421875 608.421875 104.957031 611.96875 108.753906 617.28125 C 112.414062 622.710938 118.011719 629.390625 123.359375 636.265625 C 129.121094 642.789062 134.648438 649.53125 139.296875 654.121094 C 143.8125 658.832031 146.824219 661.980469 146.824219 661.980469 C 146.824219 661.980469 147.582031 662.753906 148.957031 664.070312 C 150.324219 665.394531 152.277344 667.285156 154.625 669.550781 C 159.203125 674.21875 165.847656 679.839844 172.367188 685.601562 C 175.71875 688.386719 179.160156 691.046875 182.339844 693.605469 C 183.9375 694.875 185.480469 696.105469 186.941406 697.269531 C 188.457031 698.363281 189.890625 699.394531 191.21875 700.351562 C 196.507812 704.171875 200.039062 706.71875 200.039062 706.71875 C 200.039062 706.71875 200.808594 707.339844 202.054688 708.144531 C 203.28125 708.964844 204.925781 710.066406 206.5625 711.167969 C 209.847656 713.363281 213.132812 715.558594 213.132812 715.558594 C 214.011719 716.15625 214.925781 716.777344 215.886719 717.417969 C 216.875 718.023438 217.902344 718.640625 218.976562 719.289062 C 221.121094 720.582031 223.425781 721.960938 225.878906 723.4375 C 230.730469 726.496094 236.46875 729.382812 242.671875 732.6875 C 244.234375 733.496094 245.796875 734.375 247.445312 735.167969 C 249.105469 735.941406 250.792969 736.730469 252.511719 737.535156 C 255.960938 739.128906 259.539062 740.785156 263.226562 742.492188 C 270.78125 745.460938 278.664062 749.003906 287.261719 751.769531 C 321.199219 764.097656 363.570312 771.726562 406.066406 771.902344 C 448.5625 771.726562 490.941406 764.097656 524.886719 751.765625 C 533.480469 749.003906 541.359375 745.457031 548.917969 742.492188 C 552.605469 740.785156 556.175781 739.128906 559.625 737.527344 C 561.347656 736.722656 563.035156 735.9375 564.695312 735.167969 C 566.34375 734.375 567.914062 733.496094 569.46875 732.6875 C 575.671875 729.382812 581.414062 726.496094 586.261719 723.4375 C 588.714844 721.960938 591.023438 720.574219 593.171875 719.289062 C 594.238281 718.640625 595.269531 718.019531 596.253906 717.417969 C 597.214844 716.773438 598.132812 716.15625 599.007812 715.558594 C 599.007812 715.558594 602.292969 713.363281 605.574219 711.167969 C 607.214844 710.066406 608.859375 708.964844 610.085938 708.144531 C 611.328125 707.339844 612.097656 706.71875 612.097656 706.71875 C 612.097656 706.71875 615.628906 704.171875 620.921875 700.351562 C 622.246094 699.394531 623.683594 698.363281 625.199219 697.269531 C 626.660156 696.105469 628.203125 694.875 629.800781 693.605469 C 632.980469 691.046875 636.425781 688.386719 639.769531 685.601562 C 646.285156 679.839844 652.933594 674.21875 657.511719 669.550781 C 659.859375 667.285156 661.816406 665.394531 663.1875 664.070312 C 664.554688 662.753906 665.316406 661.980469 665.316406 661.980469 C 665.316406 661.980469 668.328125 658.832031 672.84375 654.121094 C 677.492188 649.53125 683.015625 642.789062 688.777344 636.265625 C 694.125 629.390625 699.726562 622.703125 703.386719 617.28125 C 707.183594 611.964844 709.71875 608.421875 709.71875 608.421875 L 718.484375 595.25 C 736.71875 566.8125 751.347656 535.847656 760.894531 503.234375 C 770.824219 470.710938 775.410156 436.605469 775.714844 402.519531 L 775.71875 402.496094 L 775.71875 402.007812 " fill-opacity="1" fill-rule="nonzero"/></g><path fill="#ffffff" d="M 151.773438 365.734375 C 167.367188 365.734375 179.960938 353.070312 179.960938 337.472656 C 179.960938 321.875 167.367188 309.28125 151.699219 309.28125 C 136.105469 309.28125 123.507812 321.875 123.507812 337.472656 C 123.507812 353.070312 136.105469 365.734375 151.773438 365.734375 Z M 151.699219 320.117188 C 160.925781 320.117188 168.324219 327.882812 168.324219 337.472656 C 168.324219 347.210938 161 354.824219 151.773438 354.824219 C 142.402344 354.824219 135.148438 347.210938 135.148438 337.472656 C 135.148438 327.882812 142.402344 320.117188 151.699219 320.117188 Z M 151.699219 320.117188 " fill-opacity="1" fill-rule="nonzero"/><path fill="#ffffff" d="M 235.324219 365.734375 C 250.917969 365.734375 263.511719 353.070312 263.511719 337.472656 C 263.511719 321.875 250.917969 309.28125 235.25 309.28125 C 219.65625 309.28125 207.058594 321.875 207.058594 337.472656 C 207.058594 353.070312 219.65625 365.734375 235.324219 365.734375 Z M 235.25 320.117188 C 244.476562 320.117188 251.875 327.882812 251.875 337.472656 C 251.875 347.210938 244.550781 354.824219 235.324219 354.824219 C 225.953125 354.824219 218.699219 347.210938 218.699219 337.472656 C 218.699219 327.882812 225.953125 320.117188 235.25 320.117188 Z M 235.25 320.117188 " fill-opacity="1" fill-rule="nonzero"/><path fill="#ffffff" d="M 305.992188 340.621094 C 311.261719 341.207031 314.1875 343.914062 314.1875 348.3125 C 314.1875 351.824219 311.261719 354.824219 307.527344 354.824219 C 304.300781 354.824219 301.738281 354.019531 299.25 350.875 L 289.878906 357.753906 C 295.082031 363.46875 301.300781 365.734375 307.527344 365.734375 C 317.117188 365.734375 325.976562 358.121094 325.976562 347.503906 C 325.976562 336.957031 318.289062 330.660156 308.992188 330.078125 C 303.207031 329.710938 301.378906 327.441406 301.378906 324.953125 C 301.378906 321.945312 303.429688 320.117188 306.429688 320.117188 C 308.332031 320.117188 310.75 321.289062 312.210938 322.828125 L 321.148438 316.3125 C 316.972656 311.332031 311.84375 309.28125 306.429688 309.28125 C 298.882812 309.28125 290.390625 315.800781 290.390625 325.023438 C 290.390625 333.589844 296.542969 339.523438 305.992188 340.621094 Z M 305.992188 340.621094 " fill-opacity="1" fill-rule="nonzero"/><path fill="#ffffff" d="M 375.84375 364.785156 L 375.84375 320.484375 L 390.199219 320.484375 L 390.199219 310.230469 L 351.023438 310.230469 L 351.023438 320.484375 L 364.496094 320.484375 L 364.496094 364.785156 Z M 375.84375 364.785156 " fill-opacity="1" fill-rule="nonzero"/><path fill="#ffffff" d="M 429.378906 310.230469 L 418.023438 310.230469 L 418.023438 364.785156 L 429.378906 364.785156 L 429.378906 350.363281 L 435.453125 344.28125 L 455.882812 364.785156 L 471.183594 364.785156 L 443.507812 337.035156 L 470.3125 310.230469 L 455.152344 310.230469 L 429.378906 336.007812 Z M 429.378906 310.230469 " fill-opacity="1" fill-rule="nonzero"/><path fill="#ffffff" d="M 536.800781 364.785156 L 549.171875 364.785156 L 520.324219 309.28125 L 491.546875 364.785156 L 503.261719 364.785156 L 506.773438 357.464844 L 533.210938 357.464844 Z M 519.882812 330.222656 L 528.230469 347.210938 L 511.679688 347.210938 Z M 519.882812 330.222656 " fill-opacity="1" fill-rule="nonzero"/><path fill="#ffffff" d="M 575.167969 310.230469 L 575.167969 364.785156 L 597.355469 364.785156 C 613.027344 364.785156 625.84375 353.140625 625.84375 337.472656 C 625.84375 321.945312 613.027344 310.230469 597.285156 310.230469 Z M 586.519531 354.535156 L 586.519531 320.484375 L 597.285156 320.484375 C 606.804688 320.484375 614.195312 327.585938 614.195312 337.472656 C 614.195312 347.285156 606.804688 354.535156 597.355469 354.535156 Z M 586.519531 354.535156 " fill-opacity="1" fill-rule="nonzero"/><path fill="#ffffff" d="M 689.039062 364.785156 L 689.039062 354.535156 L 666.558594 354.535156 L 666.558594 340.84375 L 687.0625 340.84375 L 687.0625 330.660156 L 666.558594 330.660156 L 666.558594 320.484375 L 684.203125 320.484375 L 684.203125 310.230469 L 655.203125 310.230469 L 655.203125 364.785156 Z M 689.039062 364.785156 " fill-opacity="1" fill-rule="nonzero"/><path fill="#ffffff" d="M 263.632812 569.597656 L 258.855469 562.769531 C 258.667969 562.789062 258.371094 562.792969 257.96875 562.792969 L 252.703125 562.792969 L 252.703125 569.597656 L 248.371094 569.597656 L 248.371094 546.296875 L 257.96875 546.296875 C 259.984375 546.296875 261.746094 546.636719 263.234375 547.300781 C 264.738281 547.953125 265.894531 548.902344 266.683594 550.140625 C 267.488281 551.390625 267.898438 552.867188 267.898438 554.59375 C 267.898438 556.335938 267.464844 557.84375 266.613281 559.113281 C 265.757812 560.371094 264.53125 561.316406 262.933594 561.933594 L 268.292969 569.597656 Z M 263.539062 554.59375 C 263.539062 553.101562 263.050781 551.960938 262.070312 551.167969 C 261.09375 550.363281 259.652344 549.957031 257.761719 549.957031 L 252.703125 549.957031 L 252.703125 559.253906 L 257.761719 559.253906 C 259.652344 559.253906 261.09375 558.851562 262.070312 558.042969 C 263.050781 557.21875 263.539062 556.070312 263.539062 554.59375 Z M 263.539062 554.59375 " fill-opacity="1" fill-rule="nonzero"/><path fill="#ffffff" d="M 299.867188 565.964844 L 299.867188 569.597656 L 282.367188 569.597656 L 282.367188 546.296875 L 299.398438 546.296875 L 299.398438 549.910156 L 286.699219 549.910156 L 286.699219 555.992188 L 297.957031 555.992188 L 297.957031 559.53125 L 286.699219 559.53125 L 286.699219 565.964844 Z M 299.867188 565.964844 " fill-opacity="1" fill-rule="nonzero"/><path fill="#ffffff" d="M 321.554688 569.925781 C 319.765625 569.925781 318.039062 569.675781 316.359375 569.179688 C 314.683594 568.667969 313.355469 567.984375 312.375 567.128906 L 313.867188 563.773438 C 314.828125 564.535156 316 565.160156 317.386719 565.636719 C 318.765625 566.101562 320.15625 566.335938 321.554688 566.335938 C 323.292969 566.335938 324.589844 566.070312 325.445312 565.519531 C 326.296875 564.960938 326.730469 564.226562 326.730469 563.308594 C 326.730469 562.644531 326.484375 562.089844 326.007812 561.652344 C 325.523438 561.222656 324.917969 560.882812 324.1875 560.652344 C 323.453125 560.40625 322.464844 560.125 321.207031 559.8125 C 319.417969 559.394531 317.972656 558.972656 316.871094 558.554688 C 315.78125 558.121094 314.84375 557.457031 314.054688 556.574219 C 313.261719 555.675781 312.863281 554.453125 312.863281 552.914062 C 312.863281 551.628906 313.214844 550.457031 313.914062 549.394531 C 314.613281 548.34375 315.667969 547.503906 317.082031 546.878906 C 318.492188 546.261719 320.214844 545.949219 322.253906 545.949219 C 323.683594 545.949219 325.082031 546.128906 326.449219 546.484375 C 327.828125 546.84375 329.019531 547.359375 330.015625 548.023438 L 328.664062 551.378906 C 327.636719 550.789062 326.566406 550.339844 325.445312 550.027344 C 324.339844 549.71875 323.269531 549.558594 322.230469 549.558594 C 320.519531 549.558594 319.25 549.851562 318.410156 550.421875 C 317.582031 551 317.175781 551.761719 317.175781 552.707031 C 317.175781 553.375 317.40625 553.929688 317.875 554.359375 C 318.351562 554.777344 318.957031 555.117188 319.691406 555.363281 C 320.4375 555.59375 321.4375 555.867188 322.699219 556.175781 C 324.421875 556.585938 325.832031 557.003906 326.9375 557.433594 C 328.058594 557.871094 329.011719 558.53125 329.804688 559.414062 C 330.597656 560.300781 330.992188 561.5 330.992188 563.003906 C 330.992188 564.296875 330.644531 565.460938 329.945312 566.5 C 329.246094 567.542969 328.179688 568.375 326.753906 568.992188 C 325.335938 569.609375 323.605469 569.925781 321.554688 569.925781 Z M 321.554688 569.925781 " fill-opacity="1" fill-rule="nonzero"/><path fill="#ffffff" d="M 349.664062 549.957031 L 341.949219 549.957031 L 341.949219 546.296875 L 361.730469 546.296875 L 361.730469 549.957031 L 353.996094 549.957031 L 353.996094 569.597656 L 349.664062 569.597656 Z M 349.664062 549.957031 " fill-opacity="1" fill-rule="nonzero"/><path fill="#ffffff" d="M 389.757812 564.214844 L 378.105469 564.214844 L 375.800781 569.597656 L 371.347656 569.597656 L 381.832031 546.296875 L 386.097656 546.296875 L 396.605469 569.597656 L 392.085938 569.597656 Z M 388.335938 560.8125 L 383.929688 550.609375 L 379.574219 560.8125 Z M 388.335938 560.8125 " fill-opacity="1" fill-rule="nonzero"/><path fill="#ffffff" d="M 419.25 569.925781 C 416.03125 569.925781 413.523438 569.027344 411.722656 567.222656 C 409.933594 565.40625 409.042969 562.8125 409.042969 559.4375 L 409.042969 546.296875 L 413.375 546.296875 L 413.375 559.277344 C 413.375 563.84375 415.34375 566.125 419.292969 566.125 C 423.222656 566.125 425.191406 563.84375 425.191406 559.277344 L 425.191406 546.296875 L 429.453125 546.296875 L 429.453125 559.4375 C 429.453125 562.8125 428.558594 565.40625 426.773438 567.222656 C 424.984375 569.027344 422.476562 569.925781 419.25 569.925781 Z M 419.25 569.925781 " fill-opacity="1" fill-rule="nonzero"/><path fill="#ffffff" d="M 460.417969 569.597656 L 455.640625 562.769531 C 455.457031 562.789062 455.160156 562.792969 454.757812 562.792969 L 449.492188 562.792969 L 449.492188 569.597656 L 445.15625 569.597656 L 445.15625 546.296875 L 454.757812 546.296875 C 456.773438 546.296875 458.53125 546.636719 460.023438 547.300781 C 461.527344 547.953125 462.679688 548.902344 463.472656 550.140625 C 464.273438 551.390625 464.683594 552.867188 464.683594 554.59375 C 464.683594 556.335938 464.253906 557.84375 463.402344 559.113281 C 462.546875 560.371094 461.316406 561.316406 459.71875 561.933594 L 465.078125 569.597656 Z M 460.324219 554.59375 C 460.324219 553.101562 459.835938 551.960938 458.859375 551.167969 C 457.878906 550.363281 456.441406 549.957031 454.546875 549.957031 L 449.492188 549.957031 L 449.492188 559.253906 L 454.546875 559.253906 C 456.441406 559.253906 457.878906 558.851562 458.859375 558.042969 C 459.835938 557.21875 460.324219 556.070312 460.324219 554.59375 Z M 460.324219 554.59375 " fill-opacity="1" fill-rule="nonzero"/><path fill="#ffffff" d="M 494.273438 564.214844 L 482.625 564.214844 L 480.316406 569.597656 L 475.867188 569.597656 L 486.351562 546.296875 L 490.617188 546.296875 L 501.125 569.597656 L 496.605469 569.597656 Z M 492.851562 560.8125 L 488.449219 550.609375 L 484.089844 560.8125 Z M 492.851562 560.8125 " fill-opacity="1" fill-rule="nonzero"/><path fill="#ffffff" d="M 534.460938 546.296875 L 534.460938 569.597656 L 530.898438 569.597656 L 518.058594 553.824219 L 518.058594 569.597656 L 513.746094 569.597656 L 513.746094 546.296875 L 517.3125 546.296875 L 530.175781 562.074219 L 530.175781 546.296875 Z M 534.460938 546.296875 " fill-opacity="1" fill-rule="nonzero"/><path fill="#ffffff" d="M 555.105469 549.957031 L 547.390625 549.957031 L 547.390625 546.296875 L 567.175781 546.296875 L 567.175781 549.957031 L 559.4375 549.957031 L 559.4375 569.597656 L 555.105469 569.597656 Z M 555.105469 549.957031 " fill-opacity="1" fill-rule="nonzero"/><g clip-path="url(#8564693a57)"><path fill="#ffffff" d="M 177.585938 451.289062 C 178.222656 451.289062 178.921875 451.226562 179.554688 451.351562 C 183.359375 451.992188 187.042969 451.351562 190.660156 450.269531 C 197.515625 448.160156 203.859375 445.101562 209.703125 440.890625 C 210.144531 440.570312 210.652344 440.25 211.160156 440.058594 C 213.0625 439.230469 214.140625 439.808594 214.710938 441.78125 C 214.839844 442.230469 214.902344 442.671875 215.03125 443.121094 C 215.476562 445.546875 216.875 447.398438 218.898438 448.738281 C 223.09375 451.546875 227.789062 452.949219 232.742188 453.332031 C 237.117188 453.648438 241.433594 453.269531 245.75 452.566406 C 249.238281 451.992188 252.726562 451.351562 256.160156 450.332031 C 260.660156 448.992188 264.980469 447.207031 268.660156 444.269531 C 269.421875 443.699219 270.308594 443.25 271.199219 442.867188 C 272.65625 442.292969 273.546875 442.800781 273.925781 444.332031 C 274.183594 445.296875 274.3125 446.25 274.367188 447.207031 C 274.5625 450.140625 276.402344 451.800781 278.8125 452.886719 C 281.160156 453.96875 283.636719 454.417969 286.175781 454.609375 C 292.585938 454.925781 298.804688 453.90625 304.898438 452.058594 C 312.328125 449.757812 319.433594 446.570312 326.414062 443.25 C 327.746094 442.609375 329.015625 441.910156 330.351562 441.269531 C 330.921875 441.019531 331.492188 440.890625 332.128906 440.828125 C 333.519531 440.761719 334.152344 441.332031 334.476562 442.671875 C 334.601562 443.3125 334.726562 443.949219 334.789062 444.652344 C 335.171875 447.652344 336.820312 449.691406 339.425781 451.03125 C 342.34375 452.566406 345.519531 453.269531 348.753906 453.710938 C 354.019531 454.480469 359.289062 453.90625 364.492188 453.011719 C 370.523438 451.992188 376.300781 450.207031 382.136719 448.417969 C 388.039062 446.632812 393.875 444.847656 399.71875 443.058594 C 401.050781 442.671875 402.378906 442.359375 403.714844 442.167969 C 406.570312 441.71875 408.03125 442.488281 409.492188 444.972656 C 410.25 446.3125 411.078125 447.589844 411.90625 448.867188 C 414.566406 453.011719 418.5625 454.988281 423.328125 455.566406 C 428.273438 456.199219 433.160156 455.4375 437.984375 454.480469 C 444.90625 453.078125 451.570312 450.777344 458.042969 447.847656 C 460.324219 446.820312 462.609375 445.546875 464.832031 444.460938 C 465.71875 444.011719 466.675781 443.632812 467.625 443.25 C 468.957031 442.738281 470.035156 443.1875 470.863281 444.207031 C 471.242188 444.652344 471.5625 445.230469 471.8125 445.800781 C 473.273438 449.25 475.871094 451.417969 479.238281 452.820312 C 483.429688 454.546875 487.808594 454.800781 492.246094 454.609375 C 497.390625 454.417969 502.402344 453.457031 507.417969 452.371094 C 514.273438 450.90625 520.808594 448.289062 527.28125 445.609375 C 529.441406 444.71875 531.660156 443.949219 533.882812 443.25 C 535.59375 442.738281 536.925781 443.378906 537.882812 444.910156 C 538.261719 445.480469 538.582031 446.1875 538.832031 446.820312 C 540.039062 449.820312 542.320312 451.480469 545.304688 452.371094 C 549.304688 453.585938 553.367188 453.90625 557.492188 453.585938 C 563.269531 453.140625 568.851562 451.609375 574.308594 449.628906 C 580.085938 447.460938 585.796875 445.296875 591.574219 443.1875 C 592.652344 442.800781 593.792969 442.550781 594.9375 442.421875 C 596.207031 442.230469 597.285156 442.738281 598.238281 443.699219 C 599.632812 445.039062 601.03125 446.378906 602.550781 447.527344 C 604.960938 449.378906 607.757812 450.460938 610.613281 451.289062 C 617.71875 453.457031 624.953125 454.03125 632.316406 453.648438 C 633.082031 453.585938 633.84375 453.457031 634.601562 453.398438 C 634.601562 454.097656 634.601562 454.800781 634.601562 455.566406 C 630.226562 455.886719 625.910156 456.011719 621.527344 455.5 C 616.132812 454.988281 610.933594 453.96875 605.980469 451.800781 C 602.871094 450.460938 600.078125 448.671875 597.726562 446.121094 C 597.410156 445.800781 597.097656 445.480469 596.777344 445.167969 C 596.140625 444.527344 595.316406 444.207031 594.429688 444.460938 C 593.667969 444.652344 592.96875 444.847656 592.273438 445.101562 C 586.050781 447.460938 579.894531 449.886719 573.609375 452.117188 C 567.136719 454.417969 560.472656 455.949219 553.558594 455.820312 C 549.8125 455.757812 546.195312 455.117188 542.769531 453.585938 C 540.480469 452.628906 538.769531 451.03125 537.625 448.800781 C 537.3125 448.097656 536.925781 447.460938 536.613281 446.757812 C 535.785156 445.167969 535.34375 444.910156 533.566406 445.480469 C 532.039062 445.992188 530.519531 446.632812 528.992188 447.207031 C 524.617188 448.867188 520.238281 450.71875 515.792969 452.246094 C 510.019531 454.226562 504.054688 455.4375 498.027344 456.199219 C 494.660156 456.648438 491.363281 456.839844 487.996094 456.710938 C 484.191406 456.519531 480.574219 455.820312 477.140625 454.097656 C 474.039062 452.5 471.683594 450.207031 470.226562 447.078125 C 469.273438 444.972656 469.085938 444.71875 466.675781 445.929688 C 464.511719 447.011719 462.421875 448.097656 460.261719 449.121094 C 452.011719 453.011719 443.507812 455.820312 434.625 457.289062 C 430.433594 457.988281 426.183594 458.246094 421.929688 457.480469 C 417.042969 456.585938 413.109375 454.289062 410.3125 450.078125 C 409.429688 448.738281 408.472656 447.398438 407.773438 445.929688 C 407.015625 444.460938 405.933594 443.890625 404.414062 444.207031 C 402.128906 444.71875 399.847656 445.230469 397.621094 445.867188 C 391.527344 447.652344 385.5 449.566406 379.40625 451.417969 C 374.582031 452.886719 369.636719 454.226562 364.683594 455.117188 C 358.90625 456.078125 353.132812 456.648438 347.296875 455.628906 C 343.679688 454.988281 340.125 454.097656 337.078125 451.992188 C 334.851562 450.460938 333.460938 448.351562 333.011719 445.609375 C 332.890625 444.78125 332.761719 444.011719 332.570312 443.1875 C 331.679688 442.800781 330.984375 443.3125 330.285156 443.699219 C 328.382812 444.589844 326.539062 445.546875 324.699219 446.441406 C 319.113281 449.121094 313.40625 451.480469 307.503906 453.457031 C 302.296875 455.246094 296.964844 456.328125 291.441406 456.710938 C 287.640625 456.96875 283.828125 456.710938 280.148438 455.628906 C 278.242188 455.117188 276.53125 454.226562 275.066406 452.949219 C 273.417969 451.480469 272.65625 449.628906 272.40625 447.460938 C 272.277344 446.632812 272.148438 445.867188 272.019531 444.78125 C 271.136719 445.296875 270.371094 445.671875 269.738281 446.1875 C 265.355469 449.628906 260.285156 451.480469 255.015625 452.949219 C 249.9375 454.351562 244.800781 455.117188 239.59375 455.5 C 231.976562 456.078125 224.742188 454.988281 218.144531 450.71875 C 215.410156 448.929688 213.699219 446.570312 213.0625 443.378906 C 213 443.058594 212.933594 442.671875 212.8125 442.359375 C 212.75 442.230469 212.683594 442.101562 212.492188 441.78125 C 211.859375 441.972656 211.285156 442.230469 210.714844 442.550781 C 207.734375 444.332031 204.878906 446.3125 201.832031 447.847656 C 196.878906 450.332031 191.738281 452.4375 186.21875 453.207031 C 184.058594 453.519531 181.777344 453.269531 179.554688 453.269531 C 178.921875 453.269531 178.222656 453.140625 177.585938 453.140625 C 177.585938 452.5 177.585938 451.929688 177.585938 451.289062 Z M 177.585938 451.289062 " fill-opacity="1" fill-rule="nonzero"/></g></svg>